<svg width="72" height="13" viewBox="0 0 72 13" fill="none" xmlns="http://www.w3.org/2000/svg">
<path d="M0.5 12.493V0.5L8.81881 6.4965L0.5 12.493ZM8.81881 6.4965L17.1376 12.493V0.5L8.81881 6.4965ZM30.1441 10.1804H28.7091L28.0696 8.01262H25.392L24.7524 10.1804H23.3778L25.837 2.08807H27.6828L30.143 10.1804H30.1441ZM27.8159 6.94624L26.7781 3.39831H26.6814L25.6436 6.94624H27.8148H27.8159ZM37.4116 7.1901C37.4116 8.22549 37.1943 9.00604 36.7607 9.53173C36.326 10.0574 35.7437 10.3203 35.0116 10.3203C34.553 10.3203 34.1714 10.2173 33.8657 10.0135C33.56 9.80857 33.3146 9.52474 33.1295 9.16095H33.0567V12.5H31.7423V4.19784H33.0567V5.21825H33.1295C33.3146 4.85546 33.56 4.57063 33.8657 4.36575C34.1714 4.16086 34.553 4.05892 35.0116 4.05892C35.7437 4.05892 36.326 4.32177 36.7607 4.84746C37.1953 5.37316 37.4116 6.1537 37.4116 7.1891V7.1901ZM36.0244 6.70338C36.0244 6.21667 35.8893 5.82589 35.6199 5.53206C35.3506 5.23824 34.9669 5.09132 34.4678 5.09132C34.2744 5.09132 34.0934 5.11431 33.925 5.16128C33.7565 5.20825 33.6068 5.27721 33.4789 5.37016C33.3499 5.4631 33.248 5.57704 33.1711 5.71196C33.0941 5.84688 33.0567 6.00779 33.0567 6.19268V8.18652C33.0567 8.37241 33.0952 8.53231 33.1711 8.66724C33.247 8.80216 33.3499 8.91609 33.4789 9.00904C33.6078 9.10198 33.7565 9.17094 33.925 9.21791C34.0934 9.26489 34.2744 9.28787 34.4678 9.28787C34.9659 9.28787 35.3506 9.14096 35.6199 8.84713C35.8893 8.5533 36.0244 8.16353 36.0244 7.67581V6.70238V6.70338ZM38.9329 10.1814H44.3609V9.14995H42.3707V4.19784H38.9329V5.22924H41.0563V9.14795H38.9329V10.1794V10.1814ZM42.4133 2.91259C42.5464 2.78167 42.6119 2.61876 42.6119 2.42588V2.18202C42.6119 1.98913 42.5453 1.82623 42.4133 1.6953C42.2802 1.56438 42.0452 1.49842 41.7072 1.49842C41.3693 1.49842 41.1467 1.56438 41.0136 1.6953C40.8805 1.82723 40.815 1.98913 40.815 2.18202V2.42588C40.815 2.61876 40.8816 2.78167 41.0136 2.91259C41.1467 3.04452 41.3817 3.10948 41.7197 3.10948C42.0577 3.10948 42.2802 3.04352 42.4133 2.91259ZM45.6493 10.1814H51.0898V9.14995H49.0267V1.60136H45.6493V2.63276H47.7124V9.14795H45.6493V10.1794V10.1814ZM52.3771 10.1814H57.8176V9.14995H55.7546V1.60136H52.3771V2.63276H54.4402V9.14795H52.3771V10.1794V10.1814ZM64.5455 7.1901C64.5455 7.66982 64.4768 8.10257 64.3406 8.48834C64.2034 8.87511 64.0089 9.20292 63.7552 9.47377C63.5015 9.74461 63.1926 9.95349 62.8266 10.0994C62.4606 10.2463 62.0488 10.3193 61.5902 10.3193C61.1316 10.3193 60.7199 10.2453 60.3538 10.0994C59.9878 9.95249 59.6779 9.74361 59.4252 9.47377C59.1715 9.20292 58.9771 8.87511 58.8398 8.48834C58.7025 8.10157 58.635 7.66882 58.635 7.1901C58.635 6.71138 58.7036 6.27863 58.8398 5.89185C58.976 5.50508 59.1715 5.17727 59.4252 4.90643C59.679 4.63559 59.9878 4.42771 60.3538 4.28079C60.7199 4.13388 61.1316 4.06092 61.5902 4.06092C62.0488 4.06092 62.4606 4.13488 62.8266 4.28079C63.1926 4.42771 63.5025 4.63659 63.7552 4.90643C64.0089 5.17727 64.2034 5.50508 64.3406 5.89185C64.4768 6.27863 64.5455 6.71138 64.5455 7.1901ZM63.1708 6.73836C63.1708 6.18168 63.0283 5.76293 62.7424 5.48009C62.4564 5.19826 62.0727 5.05734 61.5902 5.05734C61.1077 5.05734 60.724 5.19826 60.4381 5.48009C60.1521 5.76193 60.0096 6.18168 60.0096 6.73836V7.64283C60.0096 8.19951 60.1521 8.61826 60.4381 8.9011C60.723 9.18293 61.1077 9.32385 61.5902 9.32385C62.0727 9.32385 62.4564 9.18293 62.7424 8.9011C63.0273 8.61926 63.1708 8.19951 63.1708 7.64283V6.73836ZM67.5434 10.1814V6.12272C67.5434 5.95282 67.5818 5.80191 67.6578 5.67098C67.7337 5.54006 67.8366 5.43112 67.9655 5.34617C68.0945 5.26122 68.239 5.19726 68.4002 5.15528C68.5614 5.11331 68.7257 5.09132 68.8952 5.09132C69.7551 5.09132 70.1856 5.56704 70.1856 6.51749V10.1814H71.5V6.3306C71.5 5.60402 71.3066 5.04335 70.9208 4.64958C70.535 4.25581 70.0286 4.05792 69.4005 4.05792C69.1427 4.05792 68.918 4.08891 68.7246 4.15087C68.5312 4.21283 68.3628 4.29579 68.2182 4.39973C68.0737 4.50366 67.951 4.62759 67.8501 4.77051C67.7493 4.91343 67.6671 5.06234 67.6026 5.21725H67.5423V4.19684H66.228V10.1794H67.5423L67.5434 10.1814Z" fill="#F0F2DA"/>
</svg>
