<svg width="66" height="14" viewBox="0 0 66 14" fill="none" xmlns="http://www.w3.org/2000/svg">
<path d="M21.344 1.99841C20.6017 1.99841 19.886 2.09009 19.5943 2.16865C19.1702 2.28645 19.0641 2.46971 18.9846 2.84933L17.3012 10.5208C17.2747 10.6779 17.2481 10.8088 17.2481 10.9397C17.2481 11.3197 17.5001 11.568 17.9109 11.568C18.3616 11.568 18.5472 11.2801 18.64 10.835L19.1171 8.64879C19.4485 8.68803 19.886 8.72726 20.509 8.72726C23.2529 8.72726 24.9627 7.26113 24.9627 5.04867C24.9627 3.11115 23.5974 1.99841 21.344 1.99841ZM20.4427 7.47041C20.0185 7.47041 19.6872 7.4574 19.3822 7.41807L20.2704 3.34675C20.5487 3.30742 20.9597 3.25507 21.3839 3.25507C22.8419 3.25507 23.5842 3.93584 23.5842 5.06169C23.5842 6.50179 22.5238 7.47051 20.4424 7.47051L20.4427 7.47041Z" fill="#F0F2DA"/>
<path d="M64.5294 9.04156C64.3041 9.04156 64.1583 9.17247 63.8799 9.47352C63.3894 9.97104 63.0846 10.2459 62.7002 10.2459C62.3556 10.2459 62.1699 9.97104 62.1699 9.52587C62.1699 9.27716 62.223 8.9761 62.2893 8.64883L62.7799 6.37092H64.2516C64.7155 6.37092 64.9939 6.1091 64.9939 5.6378C64.9939 5.37598 64.8216 5.17962 64.424 5.17962H63.0448L63.2835 4.11923C63.3099 3.96219 63.3365 3.81817 63.3365 3.68726C63.3365 3.32066 63.0846 3.05884 62.6737 3.05884C62.2362 3.05884 62.0374 3.34688 61.9447 3.79195L61.6397 5.17962H61.0168C60.5396 5.17962 60.2612 5.44144 60.2612 5.91273C60.2612 6.17455 60.4468 6.37092 60.8444 6.37092H61.3879L60.8973 8.62242C60.8443 8.87113 60.7781 9.27697 60.7781 9.69592C60.7781 10.7563 61.3348 11.5287 62.5278 11.5287C63.2171 11.5287 63.8268 11.1883 64.2908 10.7824C64.7414 10.3897 65.0728 9.90539 65.0728 9.59113C65.0729 9.29027 64.8345 9.04156 64.5294 9.04156Z" fill="#F0F2DA"/>
<path d="M34.0424 2.77088C34.0424 2.39088 33.7773 2.14246 33.3664 2.14246C32.929 2.14246 32.7301 2.4305 32.6373 2.87557L30.9804 10.4816C30.9406 10.6387 30.9142 10.7696 30.9142 10.9005C30.9142 11.2805 31.1793 11.5288 31.5769 11.5288C32.0276 11.5288 32.2264 11.2408 32.3192 10.7957L33.9764 3.18974C34.0027 3.0327 34.0424 2.90179 34.0424 2.77088Z" fill="#F0F2DA"/>
<path d="M57.7029 5.0487C55.582 5.0487 54.1372 7.13024 54.1372 9.107C54.1372 9.14405 54.1381 9.18063 54.1393 9.21711C53.8067 9.71586 53.3817 10.2328 53.09 10.2328C52.8779 10.2328 52.7984 10.0365 52.7984 9.73533C52.7984 9.36882 52.9042 8.75351 53.0238 8.21676L54.124 3.18974C54.1504 3.0327 54.177 2.90179 54.177 2.77088C54.177 2.39088 53.9252 2.14246 53.5142 2.14246C53.0636 2.14246 52.8779 2.4305 52.7852 2.87557L52.1888 5.59856C51.8705 5.27128 51.4062 5.0487 50.704 5.0487C49.2955 5.0487 47.8789 6.11963 47.3267 7.7619C46.7187 9.31439 46.1753 10.2328 45.7466 10.2328C45.5876 10.2328 45.4948 10.1019 45.4948 9.87935C45.4948 9.2248 45.8659 7.62785 46.025 6.85531C46.078 6.56727 46.1045 6.44947 46.1045 6.27923C46.1045 5.70325 45.1369 5.02248 43.8776 5.02248C42.4216 5.02248 41.1027 5.93315 40.4413 7.2868C39.4593 9.00079 38.558 10.2331 38.1117 10.2331C37.9129 10.2331 37.8466 9.98433 37.7936 9.74863L37.4623 7.94202L39.4904 6.30564C39.6759 6.14851 39.9145 5.92564 39.9145 5.63798C39.9145 5.28458 39.6759 5.04898 39.3181 5.04898C39.053 5.04898 38.8275 5.20611 38.6023 5.38937L35.5539 7.87637L36.5746 3.18974C36.6012 3.0327 36.6409 2.90179 36.6409 2.77088C36.6409 2.39088 36.3758 2.14246 35.9649 2.14246C35.5275 2.14246 35.3287 2.4305 35.2358 2.87557L33.5789 10.4816C33.5392 10.6387 33.5127 10.7696 33.5127 10.9005C33.5127 11.2805 33.7778 11.5288 34.1754 11.5288C34.6261 11.5288 34.8249 11.2408 34.9177 10.7957L35.1298 9.8139L36.3758 8.81896L36.6807 10.3375C36.8 10.9397 37.1181 11.5288 37.9399 11.5288C38.7576 11.5288 39.4007 10.7914 40.0451 9.7949C40.2406 10.8386 40.9924 11.5288 42.0358 11.5288C43.0829 11.5288 43.7987 10.9135 44.2626 10.0888V10.115C44.2626 10.966 44.7001 11.5288 45.4688 11.5288C46.1639 11.5288 46.7413 11.1149 47.2571 10.2348C47.5496 11.0018 48.2034 11.5288 49.1136 11.5288C50.1873 11.5288 50.956 10.8874 51.4465 9.99715V10.0757C51.4465 11.0183 51.9237 11.5292 52.7057 11.5292C53.3962 11.5292 53.9834 11.1334 54.4839 10.4887C54.8649 11.1328 55.5477 11.5292 56.4703 11.5292C58.5911 11.5292 60.0359 9.44777 60.0359 7.4579C60.0358 6.05674 59.1742 5.0487 57.7029 5.0487ZM44.4875 7.70613C44.1027 9.34251 43.2812 10.272 42.3534 10.272C41.7304 10.272 41.3857 9.80069 41.3857 9.09399C41.3857 7.70632 42.4064 6.21387 43.7712 6.21387C44.1821 6.21387 44.5003 6.33177 44.7786 6.50191L44.4875 7.70613ZM51.8705 7.01263C51.4464 8.93705 50.4787 10.2724 49.4183 10.2724C48.8351 10.2724 48.4905 9.82729 48.4905 9.09437C48.4905 7.69359 49.4716 6.24047 50.7837 6.24047C51.2873 6.24047 51.6717 6.41062 51.9501 6.6332L51.8705 7.01263ZM56.6294 10.2721C55.8606 10.2721 55.5424 9.72222 55.5424 9.02844C55.5424 7.75857 56.4305 6.30545 57.544 6.30545C58.3127 6.30545 58.6309 6.85531 58.6309 7.5491C58.6307 8.83207 57.7427 10.2721 56.6294 10.2721Z" fill="#F0F2DA"/>
<path d="M28.2632 5.04871C26.1423 5.04871 24.6975 7.13025 24.6975 9.10701C24.6975 10.5208 25.5591 11.5288 27.0305 11.5288C29.1513 11.5288 30.5962 9.4474 30.5962 7.45753C30.5962 6.05675 29.7344 5.04871 28.2632 5.04871ZM27.1896 10.2721C26.4207 10.2721 26.1026 9.72223 26.1026 9.02845C26.1026 7.75858 26.9907 6.30546 28.1041 6.30546C28.873 6.30546 29.1911 6.85532 29.1911 7.54911C29.1911 8.83208 28.303 10.2721 27.1896 10.2721Z" fill="#F0F2DA"/>
<path d="M8.02413 2.81105C9.37493 2.81105 10.47 2.18178 10.47 1.40553C10.47 0.629275 9.37493 0 8.02413 0C6.67332 0 5.57828 0.629275 5.57828 1.40553C5.57828 2.18178 6.67332 2.81105 8.02413 2.81105Z" fill="#F0F2DA"/>
<path d="M8.02413 13.3976C9.37493 13.3976 10.47 12.7683 10.47 11.9921C10.47 11.2158 9.37493 10.5865 8.02413 10.5865C6.67332 10.5865 5.57828 11.2158 5.57828 11.9921C5.57828 12.7683 6.67332 13.3976 8.02413 13.3976Z" fill="#F0F2DA"/>
<path d="M4.6151 4.75499C5.2905 3.59964 5.28622 2.34841 4.60554 1.96029C3.92486 1.57216 2.82554 2.19412 2.15014 3.34947C1.47474 4.50481 1.47902 5.75604 2.1597 6.14417C2.84038 6.53229 3.9397 5.91034 4.6151 4.75499Z" fill="#F0F2DA"/>
<path d="M13.8981 10.0482C14.5735 8.89286 14.5692 7.64163 13.8886 7.2535C13.2079 6.86538 12.1086 7.48733 11.4332 8.64268C10.7578 9.79803 10.762 11.0493 11.4427 11.4374C12.1234 11.8255 13.2227 11.2036 13.8981 10.0482Z" fill="#F0F2DA"/>
<path d="M4.60554 11.4373C5.28622 11.0492 5.2905 9.79794 4.6151 8.64259C3.9397 7.48725 2.84038 6.86529 2.1597 7.25341C1.47902 7.64154 1.47474 8.89277 2.15014 10.0481C2.82554 11.2035 3.92486 11.8254 4.60554 11.4373Z" fill="#F0F2DA"/>
<path d="M13.8885 6.14421C14.5692 5.75608 14.5735 4.50485 13.8981 3.3495C13.2227 2.19415 12.1233 1.5722 11.4427 1.96032C10.762 2.34845 10.7577 3.59968 11.4331 4.75503C12.1085 5.91037 13.2078 6.53233 13.8885 6.14421Z" fill="#F0F2DA"/>
</svg>
